<?xml version="1.0" encoding="UTF-8" ?>
<!DOCTYPE svg PUBLIC "-//W3C//DTD SVG 1.1//EN" "http://www.w3.org/Graphics/SVG/1.1/DTD/svg11.dtd">
<svg width="1111pt" height="1111pt" viewBox="0 0 1111 1111" version="1.1" xmlns="http://www.w3.org/2000/svg">
<g id="#fddcb9ff">
<path fill="#fddcb9" opacity="1.00" d=" M 0.00 0.00 L 0.78 0.00 C 0.58 0.19 0.19 0.58 0.00 0.78 L 0.00 0.00 Z" />
<path fill="#fddcb9" opacity="1.00" d=" M 794.13 292.44 C 799.18 285.50 809.22 285.94 816.79 285.95 C 817.12 308.93 817.18 331.97 816.81 354.95 C 789.04 353.52 765.37 375.99 757.35 401.30 C 742.13 441.24 773.30 494.74 817.37 493.95 C 816.77 506.30 816.93 518.67 817.25 531.04 C 808.93 529.07 800.03 525.10 791.52 528.26 C 784.14 535.02 778.69 544.92 768.45 547.86 C 758.64 549.19 746.04 539.87 750.85 529.10 C 754.23 519.25 760.99 505.97 749.24 498.78 C 737.55 482.64 716.73 501.98 702.66 492.46 C 693.39 483.07 700.10 469.03 710.62 463.78 C 724.79 457.66 721.15 441.87 720.29 429.53 C 708.49 421.60 683.25 420.62 688.44 400.74 C 690.00 387.94 705.97 387.80 715.69 387.84 C 731.03 390.59 737.38 371.07 735.91 359.01 C 735.02 349.71 721.70 345.69 724.48 335.61 C 726.67 322.74 746.53 313.62 755.03 325.98 C 763.49 339.10 783.61 332.85 789.84 320.84 C 797.00 312.67 791.05 301.68 794.13 292.44 Z" />
</g>
<g id="#179eaff9">
<path fill="#179eaf" opacity="0.98" d=" M 389.60 121.62 C 547.99 120.15 706.50 121.44 864.93 120.98 C 883.87 124.22 901.49 141.09 901.02 161.11 C 900.88 387.58 901.19 614.06 900.87 840.52 C 897.88 860.68 879.72 881.03 857.97 879.03 C 809.18 878.68 760.32 879.59 711.56 878.58 C 675.59 871.21 674.25 812.73 707.80 800.68 C 743.87 794.97 780.50 801.56 816.77 797.81 C 819.44 762.98 817.42 727.94 817.91 693.04 C 669.83 692.62 521.64 693.73 373.64 692.39 C 347.91 699.52 328.36 725.46 331.47 752.22 C 337.25 773.57 358.59 789.06 356.09 812.82 C 355.72 838.56 327.49 857.60 303.16 850.97 C 272.03 829.90 251.42 793.73 250.97 755.95 C 251.11 584.40 250.84 412.84 251.10 241.30 C 256.11 173.41 322.22 118.01 389.60 121.62 M 386.19 202.15 C 360.85 201.69 335.70 220.59 332.01 246.19 C 331.72 371.44 332.53 496.70 331.61 621.93 C 341.40 617.28 350.75 609.78 362.14 609.99 C 513.73 609.98 665.33 610.07 816.92 609.94 C 817.32 603.65 817.02 597.33 816.89 591.05 C 817.33 571.05 816.63 551.03 817.25 531.04 C 816.93 518.67 816.77 506.30 817.37 493.95 C 816.38 447.63 817.51 401.27 816.81 354.95 C 817.18 331.97 817.12 308.93 816.79 285.95 C 817.38 265.01 816.70 244.05 817.15 223.11 C 817.06 215.47 818.76 203.00 808.68 201.10 C 667.86 201.29 526.97 200.01 386.19 202.15 Z" />
<path fill="#179eaf" opacity="0.98" d=" M 424.67 771.31 C 487.70 770.56 550.77 771.26 613.82 770.96 C 622.96 772.43 633.31 779.72 631.93 790.23 C 632.03 845.07 632.09 899.92 631.90 954.76 C 632.49 965.36 625.20 979.47 612.55 975.73 C 588.65 960.33 567.54 941.05 544.32 924.70 C 536.15 917.66 525.84 908.99 514.25 912.94 C 485.37 931.71 459.34 954.46 431.58 974.76 C 421.47 980.47 412.26 968.67 412.10 959.44 C 411.84 904.66 412.10 849.86 411.98 795.07 C 411.69 786.03 414.79 774.04 424.67 771.31 Z" />
</g>
<g id="#86fcfcfe">
<path fill="#86fcfc" opacity="1.00" d=" M 772.50 219.36 C 786.77 214.72 804.97 212.35 817.15 223.11 C 816.70 244.05 817.38 265.01 816.79 285.95 C 809.22 285.94 799.18 285.50 794.13 292.44 C 791.05 301.68 797.00 312.67 789.84 320.84 C 783.61 332.85 763.49 339.10 755.03 325.98 C 746.53 313.62 726.67 322.74 724.48 335.61 C 721.70 345.69 735.02 349.71 735.91 359.01 C 737.38 371.07 731.03 390.59 715.69 387.84 C 705.97 387.80 690.00 387.94 688.44 400.74 C 683.25 420.62 708.49 421.60 720.29 429.53 C 721.15 441.87 724.79 457.66 710.62 463.78 C 700.10 469.03 693.39 483.07 702.66 492.46 C 716.73 501.98 737.55 482.64 749.24 498.78 C 760.99 505.97 754.23 519.25 750.85 529.10 C 746.04 539.87 758.64 549.19 768.45 547.86 C 778.69 544.92 784.14 535.02 791.52 528.26 C 800.03 525.10 808.93 529.07 817.25 531.04 C 816.63 551.03 817.33 571.05 816.89 591.05 C 804.34 594.17 806.67 578.22 800.03 572.92 C 792.79 570.25 784.83 567.86 777.11 569.76 C 760.12 575.77 754.11 595.62 738.60 603.67 C 726.15 602.96 714.75 595.99 705.12 588.53 C 702.27 577.72 706.66 566.82 709.66 556.52 C 718.60 539.03 698.49 516.16 679.68 522.51 C 666.56 522.67 652.82 531.64 640.49 523.56 C 633.66 512.13 621.94 492.00 637.64 482.48 C 653.74 471.25 669.43 449.75 658.10 430.03 C 645.31 420.60 628.76 417.18 616.10 407.68 C 612.51 393.89 616.74 379.60 621.61 366.68 C 637.06 361.30 654.45 363.98 669.75 357.88 C 675.41 350.22 679.44 340.92 682.77 332.12 C 676.50 316.53 662.68 302.74 663.52 284.92 C 671.16 276.19 678.93 267.02 688.72 260.63 C 706.15 262.47 718.88 276.77 734.85 282.58 C 742.76 277.83 751.55 274.41 759.13 269.16 C 769.03 254.17 759.02 232.79 772.50 219.36 Z" />
</g>
<g id="#f98b13fe">
<path fill="#f98b13" opacity="1.00" d=" M 757.35 401.30 C 765.37 375.99 789.04 353.52 816.81 354.95 C 817.51 401.27 816.38 447.63 817.37 493.95 C 773.30 494.74 742.13 441.24 757.35 401.30 Z" />
</g>
</svg>
