<svg width="1111" height="1111" xmlns="http://www.w3.org/2000/svg" version="1.1">

 <g>
  <title>Layer 1</title>
  <g stroke="null" id="#fddcb9ff">
   <path stroke="null" id="svg_1" d="m-185.36591,-126.8293l1.00803,0c-0.25847,0.23746 -0.76249,0.72489 -1.00803,0.97485l0,-0.97485z" fill="#fddcb9"/>
   <path stroke="null" id="svg_2" d="m840.927,238.66568c6.52636,-8.67369 19.50154,-8.12378 29.28462,-8.11128c0.42648,28.72068 0.50402,57.51634 0.02585,86.23702c-35.88852,-1.78723 -66.47842,26.29604 -76.84306,57.92878c-19.66955,49.91749 20.61296,116.78242 77.56677,115.79507c-0.77541,15.43518 -0.56863,30.89535 -0.15508,46.35552c-10.75234,-2.46213 -22.25425,-7.42388 -33.25213,-3.47448c-9.53753,8.44873 -16.58083,20.82187 -29.81449,24.49631c-12.67794,1.66225 -28.96154,-9.986 -22.74534,-23.44647c4.36814,-12.31065 13.10442,-28.90815 -2.08068,-37.8943c-15.10756,-20.17196 -42.01426,3.9994 -60.1976,-7.89881c-11.98007,-11.73573 -3.30841,-29.28309 10.2871,-35.8446c18.31258,-7.64885 13.60843,-27.38338 12.49701,-42.80606c-15.24972,-9.91101 -47.8686,-11.13582 -41.16131,-35.98208c2.01606,-15.99759 22.65487,-16.17257 35.2165,-16.12257c19.82463,3.43698 28.03104,-20.95935 26.13129,-36.03208c-1.15019,-11.62325 -18.36428,-16.64749 -14.77155,-29.2456c2.83024,-16.08508 28.49629,-27.48336 39.48125,-12.03569c10.93327,16.39753 36.93533,8.58621 44.98666,-6.42403c9.25322,-10.21096 1.56374,-23.9464 5.54418,-35.49466z" fill="#fddcb9"/>
  </g>
  <g stroke="null" id="#179eaff9">
   <path stroke="null" id="svg_3" d="m318.13316,25.17282c204.69512,-1.83722 409.54532,-0.22497 614.29213,-0.79988c24.47709,4.04939 47.24827,25.13372 46.64087,50.15495c-0.18093,283.0449 0.2197,566.10229 -0.19385,849.13469c-3.86412,25.19621 -27.33318,50.62988 -55.44176,48.13026c-63.0537,-0.43743 -126.19785,0.69989 -189.21278,-0.56242c-46.48578,-9.21111 -48.21753,-82.30011 -4.85923,-97.36035c46.61502,-7.13643 93.95375,1.09983 140.82724,-3.58696c3.45057,-43.53095 0.84003,-87.32436 1.47328,-130.94279c-191.371,-0.52492 -382.88416,0.86237 -574.15178,-0.81238c-33.25213,8.91116 -58.51755,41.33128 -54.49835,74.77625c7.46978,26.68348 35.0485,46.04307 31.81763,75.7386c-0.47817,32.17016 -36.96117,55.96658 -68.40402,47.68032c-40.23082,-26.33354 -66.86612,-71.53923 -67.44768,-118.75713c0.18093,-214.40523 -0.16801,-428.82296 0.16801,-643.21569c6.47467,-84.84973 91.91184,-154.08931 178.9903,-149.57749m-4.40691,100.64735c-32.74812,-0.57491 -65.25069,23.04653 -70.01945,55.04172c-0.37478,156.53894 0.67202,313.09038 -0.51694,469.60432c12.65209,-5.81163 24.73555,-15.18521 39.45541,-14.92275c195.90715,-0.0125 391.82722,0.09998 587.73436,-0.06249c0.51694,-7.86132 0.12923,-15.76013 -0.03877,-23.60895c0.56863,-24.99624 -0.33601,-50.01747 0.46525,-75.00121c-0.41355,-15.46017 -0.62033,-30.92035 0.15508,-46.35552c-1.27943,-57.89129 0.18093,-115.83257 -0.72372,-173.72385c0.47817,-28.72068 0.40063,-57.51634 -0.02585,-86.23702c0.76249,-26.17106 -0.11631,-52.36712 0.46525,-78.53818c-0.11631,-9.54856 2.08068,-25.13372 -10.94619,-27.50836c-181.98855,0.23746 -364.06756,-1.36229 -546.00442,1.3123z" opacity="0.98" fill="#ffffff"/>
   <path stroke="null" id="svg_4" d="m363.45583,837.1631c81.45674,-0.93736 162.96518,-0.06249 244.44776,-0.43743c11.81207,1.83722 25.18788,10.94835 23.40444,24.08388c0.12923,68.53968 0.20678,137.09187 -0.03877,205.63155c0.76249,13.24801 -8.65874,30.88285 -25.00695,26.20856c-30.88713,-19.2471 -58.16862,-43.34348 -88.17695,-63.7779c-10.55849,-8.79868 -23.8826,-19.63454 -38.86093,-14.69779c-37.32303,23.45897 -70.96287,51.89219 -106.83847,77.26337c-13.06565,7.13643 -24.96818,-7.61135 -25.17495,-19.14712c-0.33601,-68.4647 0,-136.95439 -0.15508,-205.43158c-0.37478,-11.2983 3.6315,-26.28354 16.39991,-29.69553z" opacity="0.98" fill="#ffffff"/>
  </g>
  <g stroke="null" id="#86fcfcfe">
   <path stroke="null" id="svg_5" d="m812.97349,147.32943c18.44182,-5.79913 41.96256,-8.76118 57.70337,4.68679c-0.58156,26.17106 0.29724,52.36712 -0.46525,78.53818c-9.78308,-0.0125 -22.75826,-0.56242 -29.28462,8.11128c-3.98043,11.54826 3.70904,25.28369 -5.54418,35.49466c-8.05133,15.01024 -34.05339,22.82157 -44.98666,6.42403c-10.98496,-15.44767 -36.65101,-4.04939 -39.48125,12.03569c-3.59273,12.5981 13.62136,17.62235 14.77155,29.2456c1.89975,15.07273 -6.30666,39.46906 -26.13129,36.03208c-12.56163,-0.04999 -33.20044,0.12498 -35.2165,16.12257c-6.70729,24.84626 25.91159,26.07108 41.16131,35.98208c1.11142,15.42268 5.81557,35.15721 -12.49701,42.80606c-13.59551,6.56151 -22.26717,24.10887 -10.2871,35.8446c18.18335,11.89821 45.09005,-12.27315 60.1976,7.89881c15.1851,8.98615 6.44882,25.58365 2.08068,37.8943c-6.2162,13.46047 10.0674,25.10872 22.74534,23.44647c13.23365,-3.67445 20.27695,-16.04758 29.81449,-24.49631c10.99789,-3.94941 22.49979,1.01235 33.25213,3.47448c-0.80126,24.98374 0.10339,50.00497 -0.46525,75.00121c-16.21898,3.89941 -13.2078,-16.03509 -21.789,-22.65909c-9.3566,-3.337 -19.6437,-6.32405 -29.62063,-3.94941c-21.95701,7.51137 -29.72402,32.32014 -49.76835,42.38112c-16.08974,-0.88737 -30.82252,-9.59856 -43.26784,-18.92215c-3.68319,-13.51047 1.99022,-27.13342 5.86726,-40.00648c11.5536,-21.85921 -14.43554,-50.44241 -38.74462,-42.5061c-16.95562,0.19997 -34.71249,11.41078 -50.64715,1.3123c-8.82674,-14.28535 -23.97307,-39.44406 -3.68319,-51.34227c20.80681,-14.03539 41.08377,-40.90634 26.44146,-65.55263c-16.52914,-11.78573 -37.91751,-16.06008 -54.27865,-27.9333c-4.63953,-17.23491 0.8271,-35.09472 7.12084,-51.24229c19.96679,-6.72399 42.44073,-3.37449 62.21367,-10.99834c7.31469,-9.57356 12.52286,-21.19681 16.82638,-32.19515c-8.10303,-19.48457 -25.96329,-36.71947 -24.87771,-58.99112c9.87354,-10.91086 19.91509,-22.37163 32.56719,-30.35793c22.52564,2.29965 38.97724,20.17196 59.61605,27.43337c10.22248,-5.93661 21.58222,-10.21096 31.37823,-16.77248c12.79425,-18.73468 -0.14216,-45.45566 17.2787,-62.24063z" fill="#86fcfc"/>
  </g>
  <g stroke="null" id="#f98b13fe">
   <path stroke="null" id="svg_6" d="m793.39441,374.72021c10.36464,-31.63274 40.95453,-59.71601 76.84306,-57.92878c0.90464,57.89129 -0.55571,115.83257 0.72372,173.72385c-56.95381,0.98735 -97.23632,-65.87758 -77.56677,-115.79507z" fill="#f98b13"/>
  </g>
 </g>
</svg>